<?xml version="1.0" encoding="UTF-8"?>
<svg width="158px" height="24px" viewBox="0 0 158 24" version="1.1" xmlns="http://www.w3.org/2000/svg" xmlns:xlink="http://www.w3.org/1999/xlink">
    <!-- Generator: Sketch 49.1 (51147) - http://www.bohemiancoding.com/sketch -->
    <title>Artboard</title>
    <desc>Created with Sketch.</desc>
    <defs></defs>
    <g id="Artboard" stroke="none" stroke-width="1" fill="none" fill-rule="evenodd">
        <g id="CompanyCam_Primary_Horizontal" fill-rule="nonzero">
            <rect id="_Path_" fill="#FFFFFF" x="0" y="0" width="24" height="24" rx="3.61"></rect>
            <g id="_Group_" transform="translate(118.000000, 5.000000)" fill="#FFFFFF">
                <path d="M39.66,13.18 L39.43,13.18 C39.08,13.18 38.72,13.18 38.36,13.18 C37.6690344,13.1643724 37.1110892,12.6108205 37.09,11.92 C37.09,10.5 37.09,9.08 37.09,7.65 C37.0914026,7.32977371 37.0372673,7.01172928 36.93,6.71 C36.7414861,6.2298877 36.3620705,5.84961337 35.8823855,5.66001459 C35.4027006,5.47041581 34.8658235,5.48851908 34.4,5.71 C33.7293305,6.01000484 33.3065501,6.68566312 33.33,7.42 L33.33,11.73 C33.3429164,12.0244377 33.2699557,12.3162803 33.12,12.57 C32.8164097,13.0680027 32.2183018,13.3028566 31.6569742,13.1444737 C31.0956467,12.9860908 30.7085087,12.4732423 30.71,11.89 L30.71,7.62 C30.7247688,7.30622477 30.6736724,6.99283372 30.56,6.7 C30.3169475,6.14169976 29.8185483,5.73569171 29.2226345,5.61054983 C28.6267208,5.48540794 28.0071027,5.65663236 27.56,6.07 C27.205283,6.4065767 27.0000214,6.87111595 26.99,7.36 C26.99,7.54 26.99,7.71 26.99,7.89 C26.99,9.22 26.99,10.55 26.99,11.89 C26.9956357,12.4470453 26.645727,12.9457656 26.12,13.13 C26.019722,13.1619645 25.9152426,13.178816 25.81,13.18 L24.58,13.18 C24.39,13.18 24.38,13.18 24.38,12.97 C24.3751746,12.9134361 24.3751746,12.8565639 24.38,12.8 C24.38,11.06 24.38,9.31 24.38,7.57 C24.3559867,6.48438838 24.7094224,5.42408131 25.38,4.57 C25.6938426,4.16428507 26.0846357,3.82446501 26.53,3.57 C26.9501415,3.31821663 27.4049998,3.12953469 27.88,3.01 C29.1554836,2.70504471 30.500523,2.98358148 31.55,3.77 C31.73,3.9 31.9,4.05 32.08,4.2 L32.17,4.13 C33.4002498,2.95836963 35.1873717,2.583422 36.7847813,3.16179445 C38.382191,3.74016691 39.5150122,5.17233534 39.71,6.86 C39.7249236,7.07307234 39.7249236,7.28692766 39.71,7.5 L39.71,11.7 C39.71,12.12 39.71,12.54 39.71,12.96 C39.69766,13.03425 39.6809645,13.1077101 39.66,13.18 Z" id="_Path_2"></path>
                <path d="M10.11,5 L9.76,4.65 C9.45,4.35 9.16,4.04 8.83,3.77 C8.30862572,3.3395657 7.67227091,3.07180985 7,3 C5.90045664,2.86478141 4.79850354,3.23209911 4,4 C3.25547223,4.68095355 2.82795228,5.6410619 2.82,6.65 C2.78330743,8.10195207 3.57746036,9.44782195 4.86617235,10.117697 C6.15488434,10.787572 7.71271646,10.6642686 8.88,9.8 C9.07853983,9.63990927 9.26566136,9.46615356 9.44,9.28 C9.64,9.09 9.83,8.88 10.03,8.69 L10.18,8.56 L10.34,8.7 L11.07,9.41 C11.3412156,9.64918963 11.4965883,9.99337927 11.4965883,10.355 C11.4965883,10.7166207 11.3412156,11.0608104 11.07,11.3 C10.0775561,12.3053872 8.77287794,12.9436217 7.37,13.11 C4.5393491,13.47669 1.80878944,11.9216179 0.68,9.3 C0.281630674,8.39475072 0.106716536,7.40700029 0.17,6.42 C0.231659075,5.02437662 0.759851777,3.68980973 1.67,2.63 C2.45613678,1.6879012 3.49801004,0.993319029 4.67,0.63 C5.08542788,0.496920398 5.51502808,0.413014111 5.95,0.38 C6.16,0.38 6.37,0.38 6.58,0.38 C7.40332095,0.375231702 8.21929512,0.535026645 8.98,0.85 C9.73812371,1.18948738 10.4239046,1.67157096 11,2.27 C11.2725933,2.51467648 11.4283156,2.8637027 11.4283156,3.23 C11.4283156,3.5962973 11.2725933,3.94532352 11,4.19 C10.76,4.4 10.55,4.63 10.33,4.85 L10.11,5 Z" id="_Path_3"></path>
                <path d="M20.08,12.49 L19.89,12.58 C19.3163156,12.9087809 18.6784929,13.110019 18.02,13.17 C16.6668432,13.321435 15.3090993,12.9276385 14.2469644,12.0756787 C13.1848296,11.223719 12.5057969,9.98377589 12.36,8.63 C12.1942,7.26315351 12.5993821,5.88842859 13.48,4.83 C14.2770868,3.83250874 15.4255875,3.17775601 16.69,3 C17.6758668,2.83845974 18.6875539,2.98149136 19.59,3.41 C20.6956032,3.91094725 21.5857956,4.79049989 22.1,5.89 C22.4053859,6.51316427 22.5692935,7.19611268 22.58,7.89 L22.58,12.74 C22.58,13.06 22.58,13.06 22.27,13.1 C21.805082,13.1725932 21.3297389,13.1383959 20.88,13 C20.6340499,12.9265804 20.4105232,12.7924644 20.23,12.61 L20.08,12.49 Z M17.45,10.59 C18.4710536,10.5940438 19.3936319,9.98155268 19.7862425,9.0389904 C20.178853,8.09642812 19.9638889,7.01011023 19.2418893,6.28811067 C18.5198898,5.56611111 17.4335719,5.35114696 16.4910096,5.74375755 C15.5484473,6.13636813 14.9359562,7.05894644 14.94,8.08 C14.94,9.46623472 16.0637653,10.59 17.45,10.59 Z" id="_Compound_Path_"></path>
            </g>
            <g id="_Group_2" transform="translate(29.000000, 5.000000)" fill="#FFFFFF">
                <path d="M32.51,4.28 C32.64,4.17 32.76,4.06 32.88,3.97 C33.5265397,3.41577446 34.3240282,3.0675262 35.17,2.97 C36.4412997,2.80822073 37.7198181,3.2100408 38.67,4.07 C39.4407769,4.73477322 39.9480573,5.65355382 40.1,6.66 C40.1480138,6.99114542 40.1714113,7.32539482 40.17,7.66 C40.17,8.94 40.17,10.21 40.17,11.48 C40.17,11.97 40.17,12.48 40.17,12.95 C40.17,13.11 40.17,13.13 39.99,13.14 C39.58,13.14 39.17,13.14 38.76,13.14 C38.41994,13.1207311 38.1071273,12.9477641 37.91,12.67 C37.7234596,12.4340555 37.6245055,12.1407274 37.63,11.84 L37.63,7.63 C37.6497935,7.43717328 37.6497935,7.24282672 37.63,7.05 C37.4107136,6.11270002 36.5251076,5.4874911 35.568479,5.5946335 C34.6118503,5.7017759 33.886499,6.50741206 33.88,7.47 C33.88,8.93 33.88,10.39 33.88,11.86 C33.884338,12.1542651 33.7931058,12.4419976 33.62,12.68 C33.3565075,13.0281517 32.933725,13.2179778 32.4984626,13.1835617 C32.0632001,13.1491456 31.6755038,12.8952351 31.47,12.51 C31.3735596,12.3321808 31.3252964,12.1322332 31.33,11.93 L31.33,7.7 C31.3338022,7.35916589 31.2762173,7.0204308 31.16,6.7 C30.7970297,5.83179978 29.850654,5.36287488 28.94,5.6 C28.2246869,5.76845653 27.6782069,6.3463886 27.55,7.07 C27.5043954,7.28015349 27.4842506,7.49503208 27.49,7.71 C27.49,9.12 27.49,10.53 27.49,11.94 C27.479316,12.527067 27.064548,13.0289363 26.49,13.15 L26.33,13.15 L25.05,13.15 C24.89,13.15 24.87,13.15 24.87,12.96 C24.87,12.6 24.87,12.24 24.87,11.88 C24.87,10.36 24.87,8.88 24.87,7.32 C24.8757639,6.38425851 25.1845095,5.47556409 25.75,4.73 C26.1441619,4.20451288 26.6539903,3.77680454 27.24,3.48 C27.6870429,3.23427989 28.1749336,3.07164963 28.68,3 C29.6868038,2.84417824 30.7163867,3.0458491 31.59,3.57 C31.8639166,3.75208323 32.1276456,3.9490454 32.38,4.16 L32.51,4.28 Z" id="_Path_4"></path>
                <path d="M77.25,14.62 L77.66,14.2 L78.13,13.73 C78.3679675,13.478638 78.6988622,13.3362419 79.045,13.3362419 C79.3911378,13.3362419 79.7220325,13.478638 79.96,13.73 C80.9259324,14.6720088 82.4571747,14.7026337 83.46,13.8 C83.7696714,13.5313833 84.0040322,13.1867351 84.14,12.8 C84.1446977,12.7467701 84.1446977,12.6932299 84.14,12.64 L83.96,12.69 C83.4736924,12.9439636 82.9449583,13.106651 82.4,13.17 C81.4765702,13.3028405 80.5343925,13.1746766 79.68,12.8 C79.0395516,12.4995984 78.4677111,12.070718 78,11.54 C77.2989404,10.7846824 76.848391,9.83119396 76.71,8.81 C76.6951008,8.62029209 76.6951008,8.42970791 76.71,8.24 L76.71,3.31 C76.71,2.99 76.71,2.99 77.02,2.99 L78.02,2.99 C78.6745395,2.99423564 79.2130631,3.50648981 79.25,4.16 C79.2547704,4.23659246 79.2547704,4.31340754 79.25,4.39 L79.25,8.06 C79.2273115,9.39566501 80.243095,10.5206458 81.5741362,10.6339819 C82.9051774,10.7473181 84.0965394,9.81027254 84.3,8.49 C84.3152386,8.32368166 84.3152386,8.15631834 84.3,7.99 L84.3,4.29 C84.2918183,3.80369139 84.5642658,3.35609893 85,3.14 C85.1620229,3.03955084 85.349382,2.98750663 85.54,2.99 L86.66,2.99 C86.88,2.99 86.9,2.98991443 86.9,3.24 L86.9,12.11 C86.8917472,12.7525649 86.74866,13.3862367 86.48,13.97 C86.2461567,14.5325764 85.9067059,15.0451471 85.48,15.48 C85.1461157,15.8216914 84.7657013,16.1145767 84.35,16.35 C83.6830935,16.7231968 82.9422513,16.9451081 82.18,17 C81.3725502,17.0597118 80.5626774,16.9224452 79.82,16.6 C79.1378273,16.3146416 78.5191752,15.8965416 78,15.37 L77.42,14.78 L77.25,14.62 Z" id="_Path_5"></path>
                <path d="M44.4,12.55 C44.4,12.66 44.4,12.74 44.4,12.82 C44.4,13.82 44.4,14.76 44.4,15.72 C44.4000947,16.0647394 44.2611276,16.3949427 44.014553,16.6358706 C43.7679783,16.8767985 43.4346448,17.0080798 43.09,17 L42.09,17 C41.89,17 41.86,17 41.86,16.77 L41.86,15.16 C41.86,12.82 41.86,10.4866667 41.86,8.16 C41.8497432,6.36269939 42.7736614,4.68904434 44.3,3.74 C46.1362899,2.61676102 48.4795725,2.76471572 50.16,4.11 C51.0047967,4.77753109 51.6115466,5.69993131 51.89,6.74 C51.9794353,7.06692705 52.0363781,7.40188466 52.06,7.74 C52.1091912,8.35056431 52.0413082,8.96490524 51.86,9.55 C51.2977472,11.3897214 49.7534828,12.7602561 47.86,13.1 C46.8786174,13.2774575 45.8667247,13.1627068 44.95,12.77 L44.4,12.55 Z M44.4,8.06 C44.430641,9.40893172 45.5106188,10.4984953 46.8592271,10.5410549 C48.2078354,10.5836145 49.354365,9.56431551 49.47,8.22 C49.5438699,6.8184103 48.4712179,5.6206156 47.07,5.54 C46.3760663,5.49861995 45.6958621,5.74573663 45.1903095,6.22288742 C44.6847568,6.70003821 44.3987673,7.36483468 44.4,8.06 Z" id="_Compound_Path_2"></path>
                <path d="M10.94,5 L10.8,4.87 L10,4.09 C9.41503069,3.48284704 8.63743717,3.0975848 7.8,3 C6.80097219,2.86789431 5.79099891,3.14563696 5,3.77 C4.15088051,4.39702065 3.61188628,5.35846982 3.52,6.41 C3.30931321,8.49299694 4.81027209,10.3591743 6.89,10.6 C7.99042004,10.7441615 9.09616087,10.3755812 9.89,9.6 C10.21,9.3 10.52,8.98 10.83,8.67 L10.91,8.61 L11.06,8.73 L11.82,9.46 C12.0650085,9.69734259 12.2033159,10.0238832 12.2033159,10.365 C12.2033159,10.7061168 12.0650085,11.0326574 11.82,11.27 C9.4968235,13.6178644 5.76579052,13.804416 3.22,11.7 C2.03132419,10.7209015 1.24173763,9.34090335 1,7.82 C0.95021578,7.37137693 0.95021578,6.91862307 1,6.47 C1.10163705,4.12584134 2.47981919,2.02593707 4.59,1 C5.20220052,0.700606157 5.86222673,0.51106017 6.54,0.44 C7.55121215,0.30606999 8.57978999,0.415784959 9.54,0.76 C10.4163428,1.08610096 11.2137966,1.59388137 11.88,2.25 C12.1151043,2.48451066 12.2472345,2.80293185 12.2472345,3.135 C12.2472345,3.46706815 12.1151043,3.78548934 11.88,4.02 C11.61,4.32 11.31,4.59 11.02,4.88 L10.94,5 Z" id="_Path_6"></path>
                <path d="M60.75,12.49 C60.53,12.6 60.31,12.72 60.09,12.81 C58.3822187,13.49985 56.4356857,13.2212286 54.99,12.08 C53.9434347,11.2789906 53.2653485,10.0887329 53.11,8.78 C52.7187191,6.0524476 54.5732352,3.51025205 57.29,3.05 C58.6511332,2.81151856 60.0507777,3.13558258 61.1685881,3.94802149 C62.2863985,4.7604604 63.0266801,5.99172209 63.22,7.36 C63.2348967,7.54303073 63.2348967,7.72696927 63.22,7.91 L63.22,12.78 C63.22,13.11 63.22,13.12 62.86,13.17 C62.4376643,13.2265263 62.0081323,13.1924364 61.6,13.07 C61.2922565,12.9868447 61.0168637,12.8125455 60.81,12.57 L60.75,12.51 L60.75,12.49 Z M58.16,5.54 C56.7598156,5.54552347 55.6281808,6.68312605 55.630022,8.08332017 C55.6318631,9.48351428 56.7664857,10.6181369 58.1666798,10.619978 C59.566874,10.6218192 60.7044765,9.49018443 60.71,8.09 C60.7126711,7.41288262 60.444869,6.76272703 59.966071,6.28392901 C59.487273,5.805131 58.8371174,5.53732889 58.16,5.54 Z" id="_Compound_Path_3"></path>
                <path d="M18.26,13.19 C16.1770927,13.1887074 14.3034304,11.9233143 13.5242157,9.99164956 C12.7450009,8.05998481 13.2162036,5.84869601 14.7152063,4.40249574 C16.214209,2.95629547 18.440967,2.56465938 20.3434594,3.41261402 C22.2459518,4.26056865 23.4433701,6.17838496 23.37,8.26 C23.2730136,11.0116412 21.0133494,13.1917087 18.26,13.19 Z M20.79,8.09 C20.8007534,7.41566567 20.5396847,6.76537408 20.0656279,6.28567365 C19.591571,5.80597323 18.9444144,5.53722733 18.27,5.54 C17.3226857,5.48058948 16.4207691,5.9522526 15.9291245,6.76417595 C15.43748,7.5760993 15.43748,8.5939007 15.9291245,9.40582405 C16.4207691,10.2177474 17.3226857,10.6894105 18.27,10.63 C18.9418253,10.6300212 19.5858468,10.3617783 20.0590176,9.88485211 C20.5321884,9.40792596 20.7953319,8.76180409 20.79,8.09 Z" id="_Compound_Path_4"></path>
                <path d="M65.1,10.35 L65.1,8 C65.0918589,7.16441091 65.3095212,6.34213088 65.73,5.62 C65.9881816,5.1676172 66.3041715,4.75077947 66.67,4.38 C67.4130329,3.62875785 68.3831865,3.14368106 69.43,3 C70.8017608,2.78685805 72.2011325,3.14211992 73.3051074,3.98378285 C74.4090824,4.82544577 75.122252,6.08077099 75.28,7.46 C75.2952506,7.72644862 75.2952506,7.99355138 75.28,8.26 C75.28,9.37 75.28,10.49 75.28,11.6 C75.28,12.05 75.28,12.5 75.28,12.95 C75.28,13.11 75.28,13.13 75.09,13.14 C74.69,13.14 74.28,13.14 73.88,13.14 C73.5402305,13.1270264 73.2243644,12.9617476 73.02,12.69 C72.8291551,12.4519323 72.7266778,12.1551016 72.73,11.85 C72.73,10.65 72.73,9.45 72.73,8.25 C72.7449404,8.06029371 72.7449404,7.86970629 72.73,7.68 C72.6187303,6.86074659 72.1096187,6.14948775 71.37,5.78 C70.9098519,5.53765431 70.3838738,5.4499913 69.87,5.53 C69.1862311,5.6124976 68.5671715,5.97452074 68.16,6.53 C67.8830576,6.90536091 67.7230418,7.35410089 67.7,7.82 C67.7,8.27 67.7,8.72 67.7,9.17 C67.7,10.08 67.7,10.98 67.7,11.89 C67.6795059,12.5512669 67.1510758,13.0840642 66.49,13.11 L65.35,13.11 C65.11,13.11 65.1,13.11 65.1,12.86 L65.1,10.35 Z" id="_Path_7"></path>
            </g>
            <g id="Group-2" transform="translate(3.000000, 4.000000)">
                <path d="M16.46,2.56 L15.69,2.56 L15.4,1.85 L13.57,1.85 L13.28,2.56 L12.09,2.56 L10.88,0.67 L6.69,0.67 L5.48,2.56 L4.31,2.56 L4,1.85 L2.19,1.85 L1.9,2.56 L1.11,2.56 C0.55771525,2.56 0.11,3.00771525 0.11,3.56 L0.11,6.56 L4.47,6.56 C5.16873916,4.77306577 6.89131025,3.59705627 8.81,3.59705627 C10.7286897,3.59705627 12.4512608,4.77306577 13.15,6.56 L17.46,6.56 L17.46,3.56 C17.46,3.00771525 17.0122847,2.56 16.46,2.56 Z" id="Shape" fill="#28ACFC"></path>
                <path d="M4.29,7.18 L0.11,7.18 L0.11,13 C0.11,13.5522847 0.55771525,14 1.11,14 L6.3,14 C5,11.72 4.16,9.92 4.16,8.26 C4.15765435,7.89596049 4.20133388,7.53308439 4.29,7.18 Z" id="Shape" fill="#0277BC"></path>
                <path d="M13.47,8.26 C13.47,9.92 12.62,11.72 11.33,13.98 L16.46,13.98 C17.0122847,13.98 17.46,13.5322847 17.46,12.98 L17.46,7.18 L13.34,7.18 C13.4237794,7.53397114 13.4673881,7.8962587 13.47,8.26 Z" id="Shape" fill="#0277BC"></path>
                <path d="M8.06,4.29 C6.88169453,4.51523696 5.86168458,5.24642689 5.27,6.29 C3.76,9 5.7,11.78 8.54,16.6 C8.59769146,16.6969571 8.70217723,16.7563693 8.815,16.7563693 C8.92782277,16.7563693 9.03230854,16.6969571 9.09,16.6 C11.24,12.94 12.88,10.45 12.88,8.29 C12.8799108,7.07930006 12.3408216,5.93148814 11.4091537,5.15831978 C10.4774858,4.38515141 9.24996633,4.06689804 8.06,4.29 Z M8.78,11.23 C7.26673979,11.23 6.04,10.0032602 6.04,8.49 C6.04,6.97673979 7.26673979,5.75 8.78,5.75 C10.2932602,5.75 11.52,6.97673979 11.52,8.49 C11.52,9.21669318 11.2313223,9.9136229 10.7174726,10.4274726 C10.2036229,10.9413223 9.50669318,11.23 8.78,11.23 Z" id="Shape" fill="#E43A34"></path>
            </g>
        </g>
    </g>
</svg>